<svg version="1.2" xmlns="http://www.w3.org/2000/svg" viewBox="0 0 500 500" width="500" height="500">
	<title>18383-ai</title>
	<style>
		.s0 { fill: #cdcdcd } 
		.s1 { fill: #60a4c2 } 
		.s2 { fill: #9900a6 } 
		.s3 { fill: #eebd3a } 
		.s4 { fill: #cacaca } 
		.s5 { fill: #c84b2a } 
		.s6 { fill: #a9c732 } 
		.s7 { fill: #828282 } 
		.s8 { fill: #bdc2c5 } 
		.s9 { fill: #979797 } 
		.s10 { fill: #505050 } 
		.s11 { fill: #636363 } 
		.s12 { fill: #999999 } 
		.s13 { fill: #ffffff } 
	</style>
	<g id="_Artboards_">
	</g>
	<g id="Object">
		<g id="&lt;Group&gt;">
			<g id="&lt;Group&gt;">
				<path id="&lt;Path&gt;" class="s0" d="m369.5 93.7v1.8h-41.6v-1.8z"/>
			</g>
			<g id="&lt;Group&gt;">
				<path id="&lt;Path&gt;" class="s1" d="m226 301.6v2.5h-45.4v-2.5z"/>
			</g>
			<g id="&lt;Group&gt;">
				<path id="&lt;Path&gt;" class="s2" d="m200.9 288.9h-67.9l-16.9-15.3 1.6-1.8 16.3 14.5h66.9z"/>
			</g>
			<g id="&lt;Group&gt;">
				<path id="&lt;Path&gt;" class="s3" d="m208.4 216.7l-89.9-70.5 1.6-1.9 89.8 70.4z"/>
			</g>
			<g id="&lt;Group&gt;">
				<path id="&lt;Path&gt;" class="s4" d="m211.4 228.5l-77.2-60.1 0.8-1 77.2 60.1z"/>
			</g>
			<g id="&lt;Group&gt;">
				<path id="&lt;Path&gt;" class="s5" d="m292.1 208.5l-1-0.9 10.5-11.3v-22.9h1.3v23.4z"/>
			</g>
			<g id="&lt;Group&gt;">
				<path id="&lt;Path&gt;" class="s0" d="m293.7 216.5l-1.9-1.8 14.9-16.1v-71.3h-6.1v-2.5h8.7v74.8z"/>
			</g>
			<g id="&lt;Group&gt;">
				<path id="&lt;Path&gt;" class="s0" d="m349.2 239.7v2.6h-42.2v-2.6z"/>
			</g>
			<g id="&lt;Group&gt;">
				<path id="&lt;Path&gt;" class="s0" d="m382.9 247.3v2.6h-69.5v-2.6z"/>
			</g>
			<g id="&lt;Group&gt;">
				<path id="&lt;Compound Path&gt;" fill-rule="evenodd" class="s0" d="m353 246.1c-3 0-5.4-2.4-5.4-5.4 0-3 2.4-5.4 5.4-5.4 3 0 5.4 2.4 5.4 5.4 0 3-2.4 5.4-5.4 5.4zm3-5.4c0-1.7-1.3-3.1-3-3.1-1.7 0-3 1.4-3 3.1 0 1.6 1.3 3 3 3 1.7 0 3-1.4 3-3z"/>
			</g>
			<g id="&lt;Group&gt;">
				<path id="&lt;Compound Path&gt;" fill-rule="evenodd" class="s0" d="m457.4 248c-3 0-5.4-2.4-5.4-5.4 0-3 2.4-5.4 5.4-5.4 2.9 0 5.4 2.4 5.4 5.4 0 3-2.5 5.4-5.4 5.4zm3-5.4c0-1.7-1.4-3-3-3-1.7 0-3.1 1.3-3.1 3 0 1.7 1.4 3 3.1 3 1.6 0 3-1.3 3-3z"/>
			</g>
			<g id="&lt;Group&gt;">
				<path id="&lt;Compound Path&gt;" fill-rule="evenodd" class="s0" d="m145.4 393.4c-3 0-5.4-2.4-5.4-5.4 0-2.9 2.4-5.4 5.4-5.4 2.9 0 5.3 2.5 5.3 5.4 0 3-2.4 5.4-5.3 5.4zm3-5.4c0-1.6-1.4-3-3-3-1.7 0-3.1 1.4-3.1 3 0 1.7 1.4 3.1 3.1 3.1 1.6 0 3-1.4 3-3.1z"/>
			</g>
			<g id="&lt;Group&gt;">
				<path id="&lt;Compound Path&gt;" fill-rule="evenodd" class="s0" d="m238.7 454.4c-3 0-5.4-2.4-5.4-5.4 0-3 2.4-5.4 5.4-5.4 3 0 5.4 2.4 5.4 5.4 0 3-2.4 5.4-5.4 5.4zm3-5.4c0-1.7-1.3-3-3-3-1.7 0-3 1.3-3 3 0 1.7 1.3 3 3 3 1.7 0 3-1.3 3-3z"/>
			</g>
			<g id="&lt;Group&gt;">
				<path id="&lt;Compound Path&gt;" fill-rule="evenodd" class="s0" d="m322.5 70.6c-3 0-5.4-2.4-5.4-5.4 0-3 2.4-5.4 5.4-5.4 3 0 5.4 2.4 5.4 5.4 0 3-2.4 5.4-5.4 5.4zm3-5.4c0-1.7-1.3-3-3-3-1.7 0-3 1.3-3 3 0 1.7 1.3 3 3 3 1.7 0 3-1.3 3-3z"/>
			</g>
			<g id="&lt;Group&gt;">
				<path id="&lt;Compound Path&gt;" fill-rule="evenodd" class="s3" d="m116.7 148.3c-2.9 0-5.3-2.4-5.3-5.4 0-3 2.4-5.4 5.3-5.4 3 0 5.4 2.4 5.4 5.4 0 3-2.4 5.4-5.4 5.4zm3.1-5.4c0-1.7-1.4-3-3.1-3-1.6 0-3 1.3-3 3 0 1.6 1.4 3 3 3 1.7 0 3.1-1.4 3.1-3z"/>
			</g>
			<g id="&lt;Group&gt;">
				<path id="&lt;Compound Path&gt;" fill-rule="evenodd" class="s0" d="m152.3 250.3c-3 0-5.4-2.4-5.4-5.4 0-3 2.4-5.4 5.4-5.4 3 0 5.4 2.4 5.4 5.4 0 3-2.4 5.4-5.4 5.4zm3-5.4c0-1.7-1.3-3-3-3-1.7 0-3 1.3-3 3 0 1.7 1.3 3 3 3 1.7 0 3-1.3 3-3z"/>
			</g>
			<g id="&lt;Group&gt;">
				<path id="&lt;Compound Path&gt;" fill-rule="evenodd" class="s0" d="m196.4 347c-3 0-5.4-2.4-5.4-5.4 0-2.9 2.4-5.3 5.4-5.3 2.9 0 5.3 2.4 5.3 5.3 0 3-2.4 5.4-5.3 5.4zm3-5.4c0-1.6-1.4-3-3-3-1.7 0-3.1 1.4-3.1 3 0 1.7 1.4 3.1 3.1 3.1 1.6 0 3-1.4 3-3.1z"/>
			</g>
			<g id="&lt;Group&gt;">
				<path id="&lt;Compound Path&gt;" fill-rule="evenodd" class="s0" d="m337.1 343.9c-3 0-5.4-2.4-5.4-5.4 0-3 2.4-5.4 5.4-5.4 3 0 5.4 2.4 5.4 5.4 0 3-2.4 5.4-5.4 5.4zm3-5.4c0-1.7-1.3-3.1-3-3.1-1.7 0-3 1.4-3 3.1 0 1.6 1.3 3 3 3 1.7 0 3-1.4 3-3z"/>
			</g>
			<g id="&lt;Group&gt;">
				<path id="&lt;Compound Path&gt;" fill-rule="evenodd" class="s0" d="m196.4 68.2c-3 0-5.4-2.4-5.4-5.3 0-3 2.4-5.4 5.4-5.4 2.9 0 5.3 2.4 5.3 5.4 0 2.9-2.4 5.3-5.3 5.3zm3-5.3c0-1.7-1.4-3.1-3-3.1-1.7 0-3.1 1.4-3.1 3.1 0 1.6 1.4 3 3.1 3 1.6 0 3-1.4 3-3z"/>
			</g>
			<g id="&lt;Group&gt;">
				<path id="&lt;Path&gt;" class="s1" d="m375.6 275.4v1.3h-63.1v-1.3z"/>
			</g>
			<g id="&lt;Group&gt;">
				<path id="&lt;Path&gt;" class="s3" d="m367.6 269.3v2.5h-52.7v-2.5z"/>
			</g>
			<g id="&lt;Group&gt;">
				<path id="&lt;Path&gt;" class="s0" d="m226.2 241v1.3h-42.2v-1.3z"/>
			</g>
			<g id="&lt;Group&gt;">
				<path id="&lt;Path&gt;" class="s0" d="m224.9 253.1v1.2h-42.2v-1.2z"/>
			</g>
			<g id="&lt;Group&gt;">
				<path id="&lt;Path&gt;" class="s0" d="m213.8 261.6v1.3h-50.7v-1.3z"/>
			</g>
			<g id="&lt;Group&gt;">
				<path id="&lt;Path&gt;" class="s0" d="m80.4 187.5l-15.9-15.3v-10.5h2.3v9.5l15.2 14.6z"/>
			</g>
			<g id="&lt;Group&gt;">
				<path id="&lt;Path&gt;" class="s0" d="m302 215.6l-1.8-1.7 41.2-44.6h45v2.6h-43.8z"/>
			</g>
			<g id="&lt;Group&gt;">
				<path id="&lt;Path&gt;" class="s0" d="m286.8 245.7l-1.9-1.8 41.3-44.5h17.5v2.5h-16.4z"/>
			</g>
			<g id="&lt;Group&gt;">
				<path id="&lt;Path&gt;" class="s0" d="m302.4 221.1l-0.9-0.9 41.1-44.3h44.7v1.3h-44.2z"/>
			</g>
			<g id="&lt;Group&gt;">
				<path id="&lt;Path&gt;" class="s0" d="m200.8 248.3v2.3h-27.2v-2.3z"/>
			</g>
			<g id="&lt;Group&gt;">
				<path id="&lt;Path&gt;" class="s0" d="m196.1 267.6v2.4h-46.7v-2.4z"/>
			</g>
			<g id="&lt;Group&gt;">
				<path id="&lt;Path&gt;" class="s0" d="m197.3 66v41.3h-2.4v-41.3z"/>
			</g>
			<g id="&lt;Group&gt;">
				<path id="&lt;Path&gt;" class="s6" d="m437.8 380.3h-36.5l-47-30.7 1.3-2 46.4 30.3h35.8z"/>
			</g>
			<g id="&lt;Group&gt;">
				<path id="&lt;Path&gt;" class="s0" d="m202.2 113.7h-2.3v-30.8l18.1-19 1.7 1.7-17.5 18.3z"/>
			</g>
			<g id="&lt;Group&gt;">
				<path id="&lt;Path&gt;" class="s0" d="m114.8 324.7v1.3h-31.1v-1.3z"/>
			</g>
			<g id="&lt;Group&gt;">
				<path id="&lt;Path&gt;" class="s0" d="m272.4 413.4l-1.9-1.7 14-14.7h29.8v2.5h-28.7z"/>
			</g>
			<g id="&lt;Group&gt;">
				<path id="&lt;Path&gt;" class="s4" d="m315.6 390.6v1.3h-22.6v-1.3z"/>
			</g>
			<g id="&lt;Group&gt;">
				<path id="&lt;Path&gt;" class="s0" d="m205.1 377.4h-2.5v-70.2h18.4v2.5h-15.9z"/>
			</g>
			<g id="&lt;Group&gt;">
				<path id="&lt;Path&gt;" class="s0" d="m197.5 345.6v34.9h-2.6v-34.9z"/>
			</g>
			<g id="&lt;Group&gt;">
				<path id="&lt;Path&gt;" class="s0" d="m205.8 401.4v37.6h-2.5v-37.6z"/>
			</g>
			<g id="&lt;Group&gt;">
				<path id="&lt;Path&gt;" class="s0" d="m337.8 319.3l-50.3-32.7 0.7-1.1 50.3 32.7z"/>
			</g>
			<g id="&lt;Group&gt;">
				<path id="&lt;Path&gt;" class="s4" d="m272.7 317.1v48.9h-1.3v-48.9z"/>
			</g>
			<g id="&lt;Group&gt;">
				<path id="&lt;Path&gt;" class="s0" d="m267.4 316.9v30.5h-2.6v-30.5z"/>
			</g>
			<g id="&lt;Group&gt;">
				<path id="&lt;Path&gt;" class="s3" d="m212.3 212.2l-84.5-66.5v-47.1h1.3v46.5l84 66.1z"/>
			</g>
			<g id="&lt;Group&gt;">
				<path id="&lt;Path&gt;" class="s0" d="m236.1 165.7v46.4h-2.5v-46.4z"/>
			</g>
			<g id="&lt;Group&gt;">
				<path id="&lt;Path&gt;" class="s0" d="m148.6 207.9h-27.7l-45.2-38.2 1.6-2 44.6 37.7h26.7z"/>
			</g>
			<g id="&lt;Group&gt;">
				<path id="&lt;Path&gt;" class="s0" d="m406.1 194h-16.9l-45.2-38.3 1.6-1.9 44.6 37.6h15.9z"/>
			</g>
			<g id="&lt;Group&gt;">
				<path id="&lt;Path&gt;" class="s0" d="m419.1 188.9h-27.4l-0.2-0.2-44.9-37.9 0.9-1 44.7 37.8h26.9z"/>
			</g>
			<g id="&lt;Group&gt;">
				<path id="&lt;Path&gt;" class="s0" d="m393.6 184.9l-44.8-37.9 0.8-1 44.9 38z"/>
			</g>
			<g id="&lt;Group&gt;">
				<path id="&lt;Path&gt;" class="s0" d="m427.3 371.6v2.3h-23.4v-2.3z"/>
			</g>
			<g id="&lt;Group&gt;">
				<path id="&lt;Path&gt;" class="s0" d="m265.7 77.9v121h-2.5v-121z"/>
			</g>
			<g id="&lt;Group&gt;">
				<path id="&lt;Path&gt;" class="s4" d="m224.5 181v36.2h-1.3v-36.2z"/>
			</g>
			<g id="&lt;Group&gt;">
				<path id="&lt;Path&gt;" class="s0" d="m229.1 188.9v28.3h-2.4v-28.3z"/>
			</g>
			<g id="&lt;Group&gt;">
				<path id="&lt;Path&gt;" class="s0" d="m352 98.7v0.9h-24.4v-0.9z"/>
			</g>
			<g id="&lt;Group&gt;">
				<path id="&lt;Path&gt;" class="s0" d="m94.1 255.7v1.3h-34.3v-1.3z"/>
			</g>
			<g id="&lt;Group&gt;">
				<path id="&lt;Path&gt;" class="s0" d="m124.4 217.6c-1.7 0-3.1-1.4-3.1-3.1 0-1.8 1.4-3.2 3.1-3.2 1.7 0 3.1 1.4 3.1 3.2 0 1.7-1.4 3.1-3.1 3.1z"/>
			</g>
			<g id="&lt;Group&gt;">
				<path id="&lt;Path&gt;" class="s0" d="m122.4 213.7l-21.2-16.8 0.8-1 21.2 16.8z"/>
			</g>
			<g id="&lt;Group&gt;">
				<path id="&lt;Path&gt;" class="s0" d="m148.3 243.2l-51.4-41.7 1.6-2 51.4 41.8z"/>
			</g>
			<g id="&lt;Group&gt;">
				<path id="&lt;Path&gt;" class="s7" d="m66 166.6c-2.7 0-4.8-2.2-4.8-4.9 0-2.7 2.1-4.8 4.8-4.8 2.7 0 4.8 2.1 4.8 4.8 0 2.7-2.1 4.9-4.8 4.9z"/>
			</g>
			<g id="&lt;Group&gt;">
				<path id="&lt;Path&gt;" class="s1" d="m179.9 308.2c-2.7 0-4.9-2.2-4.9-5 0-2.8 2.2-5 4.9-5 2.8 0 5 2.2 5 5 0 2.8-2.2 5-5 5z"/>
			</g>
			<g id="&lt;Group&gt;">
				<g id="&lt;Group&gt;">
					<g id="&lt;Group&gt;">
						<path id="&lt;Path&gt;" class="s8" d="m294 130.2c-2.5 0-4.5-2-4.5-4.5 0-2.5 2-4.5 4.5-4.5 2.5 0 4.5 2 4.5 4.5 0 2.5-2 4.5-4.5 4.5z"/>
					</g>
				</g>
				<g id="&lt;Group&gt;">
					<g id="&lt;Group&gt;">
						<path id="&lt;Compound Path&gt;" fill-rule="evenodd" class="s8" d="m294 132.3c-3.7 0-6.7-2.9-6.7-6.6 0-3.7 3-6.7 6.7-6.7 3.7 0 6.6 3 6.6 6.7 0 3.7-2.9 6.6-6.6 6.6zm5.6-6.6c0-3.2-2.5-5.7-5.6-5.7-3.2 0-5.7 2.5-5.7 5.7 0 3.1 2.5 5.6 5.7 5.6 3.1 0 5.6-2.5 5.6-5.6z"/>
					</g>
				</g>
			</g>
			<g id="&lt;Group&gt;">
				<g id="&lt;Group&gt;">
					<g id="&lt;Group&gt;">
						<path id="&lt;Path&gt;" class="s8" d="m293.8 368c-2.4 0-4.4-2-4.4-4.5 0-2.4 2-4.4 4.4-4.4 2.5 0 4.5 2 4.5 4.4 0 2.5-2 4.5-4.5 4.5z"/>
					</g>
				</g>
				<g id="&lt;Group&gt;">
					<g id="&lt;Group&gt;">
						<path id="&lt;Compound Path&gt;" fill-rule="evenodd" class="s8" d="m293.8 370.2c-3.6 0-6.6-3-6.6-6.7 0-3.6 3-6.6 6.6-6.6 3.7 0 6.7 3 6.7 6.6 0 3.7-3 6.7-6.7 6.7zm5.7-6.7c0-3.1-2.5-5.6-5.7-5.6-3.1 0-5.6 2.5-5.6 5.6 0 3.2 2.5 5.7 5.6 5.7 3.2 0 5.7-2.5 5.7-5.7z"/>
					</g>
				</g>
			</g>
			<g id="&lt;Group&gt;">
				<g id="&lt;Group&gt;">
					<g id="&lt;Group&gt;">
						<path id="&lt;Path&gt;" class="s2" d="m112.3 272.5c-2.5 0-4.5-2-4.5-4.5 0-2.5 2-4.5 4.5-4.5 2.5 0 4.5 2 4.5 4.5 0 2.5-2 4.5-4.5 4.5z"/>
					</g>
				</g>
				<g id="&lt;Group&gt;">
					<g id="&lt;Group&gt;">
						<path id="&lt;Compound Path&gt;" fill-rule="evenodd" class="s2" d="m112.3 274.7c-3.7 0-6.7-3-6.7-6.7 0-3.7 3-6.7 6.7-6.7 3.7 0 6.7 3 6.7 6.7 0 3.7-3 6.7-6.7 6.7zm5.7-6.7c0-3.1-2.6-5.7-5.7-5.7-3.1 0-5.7 2.6-5.7 5.7 0 3.1 2.6 5.6 5.7 5.6 3.1 0 5.7-2.5 5.7-5.6z"/>
					</g>
				</g>
			</g>
			<g id="&lt;Group&gt;">
				<g id="&lt;Group&gt;">
					<path id="&lt;Path&gt;" class="s9" d="m216.3 209.1l-83.7-65.5-0.1-55.5 5.7-0.1 0.1 52.8 81.5 63.8z"/>
				</g>
				<g id="&lt;Group&gt;">
					<g id="&lt;Group&gt;">
						<path id="&lt;Path&gt;" class="s9" d="m277.1 199.7h-5.7v-35.4c0-9.7 7.8-17.5 17.4-17.5h6.2v5.7h-6.2c-6.4 0-11.7 5.3-11.7 11.8z"/>
					</g>
				</g>
				<g id="&lt;Group&gt;">
					<g id="&lt;Group&gt;">
						<path id="&lt;Path&gt;" class="s9" d="m334.9 227.7v5.7h-24.8v-5.7z"/>
					</g>
					<g id="&lt;Group&gt;">
						<path id="&lt;Path&gt;" class="s9" d="m347.9 233.4h-15.6v-5.7h15.6c6.5 0 11.7-5.3 11.7-11.8v-19.5h5.8v19.5c0 9.6-7.9 17.5-17.5 17.5z"/>
					</g>
				</g>
				<g id="&lt;Group&gt;">
					<g id="&lt;Group&gt;">
						<path id="&lt;Path&gt;" class="s9" d="m259.4 157.9v37.4h-5.7v-37.4z"/>
					</g>
					<g id="&lt;Group&gt;">
						<path id="&lt;Path&gt;" class="s9" d="m259.4 160.5h-5.7v-35.3c0-6.5-5.3-11.7-11.8-11.7h-5.8v-5.7h5.8c9.6 0 17.5 7.8 17.5 17.4z"/>
					</g>
				</g>
				<g id="&lt;Group&gt;">
					<g id="&lt;Group&gt;">
						<path id="&lt;Path&gt;" class="s9" d="m206.1 291.6v5.7h-17.8v-5.7z"/>
					</g>
					<g id="&lt;Group&gt;">
						<path id="&lt;Path&gt;" class="s9" d="m159.7 315.4h-5.7v-6.4c0-9.6 7.8-17.4 17.5-17.4h19.3v5.7h-19.3c-6.5 0-11.8 5.3-11.8 11.7z"/>
					</g>
				</g>
				<g id="&lt;Group&gt;">
					<g id="&lt;Group&gt;">
						<path id="&lt;Path&gt;" class="s9" d="m142.3 339.2h-2.4v-5.7h2.4c6.4 0 11.7-5.3 11.7-11.7v-13.5h5.7v13.5c0 9.6-7.8 17.4-17.4 17.4z"/>
					</g>
				</g>
				<g id="&lt;Group&gt;">
					<g id="&lt;Group&gt;">
						<g id="&lt;Group&gt;">
							<path id="&lt;Path&gt;" class="s9" d="m215.1 360h-5.8c0-9.6 7.9-17.5 17.5-17.5h8.8v5.8h-8.8c-6.5 0-11.7 5.2-11.7 11.7z"/>
						</g>
					</g>
					<g id="&lt;Group&gt;">
						<g id="&lt;Group&gt;">
							<path id="&lt;Path&gt;" class="s9" d="m238.1 348.3h-8.5v-5.8h8.5c6.5 0 11.8-5.2 11.8-11.7v-14.3h5.7v14.3c0 9.6-7.9 17.5-17.5 17.5z"/>
						</g>
					</g>
				</g>
				<g id="&lt;Group&gt;">
					<path id="&lt;Path&gt;" class="s9" d="m296.5 156.8c-4.1 0-7.4-3.3-7.4-7.4 0-4.1 3.3-7.4 7.4-7.4 4.1 0 7.4 3.3 7.4 7.4 0 4.1-3.3 7.4-7.4 7.4z"/>
				</g>
				<g id="&lt;Group&gt;">
					<g id="&lt;Group&gt;">
						<path id="&lt;Path&gt;" class="s9" d="m335.8 284.1l10.6 0.1-8 10.2z"/>
					</g>
					<g id="&lt;Group&gt;">
						<g id="&lt;Group&gt;">
							<path id="&lt;Path&gt;" class="s10" d="m394.5 341.4h-10.6l7.9-10.3z"/>
						</g>
						<g id="&lt;Group&gt;">
							<path id="&lt;Compound Path&gt;" class="s10" d="m388.2 339.8l-7.6-5.1 3.2-4.7 7.6 5zm-15.6-10.3l-7.9-5.3 3.1-4.7 8 5.2zm-15.9-10.5l-7.9-5.3 3.1-4.7 8 5.2zm-15.9-10.5l-7.9-5.3 3.1-4.7 8 5.2zm-15.9-10.5l-8-5.3 3.2-4.7 7.9 5.2z"/>
						</g>
					</g>
					<g id="&lt;Group&gt;">
						<path id="&lt;Path&gt;" class="s9" d="m405.7 334.5l-67.8-44.7 3.1-4.7 67.8 44.6z"/>
					</g>
				</g>
				<g id="&lt;Group&gt;">
					<g id="&lt;Group&gt;">
						<g id="&lt;Group&gt;">
							<path id="&lt;Compound Path&gt;" class="s10" d="m189.7 278v5.8h-9.5v-5.8zm-19.1 0v5.8h-9.5v-5.8zm-19.1 5.8h-5.3q-2.5 0-4.9-0.8l1.6-5.4q1.6 0.4 3.3 0.4h5.3zm-19.4-7.1c-2.2-3-3.3-6.6-3.3-10.3v-0.3h5.7v0.3c0 2.5 0.8 4.9 2.2 6.9zm2.4-29.7v9.6h-5.7v-9.6z"/>
						</g>
					</g>
					<g id="&lt;Group&gt;">
						<g id="&lt;Group&gt;">
							<path id="&lt;Path&gt;" class="s10" d="m57.5 232.7h-2.8c-9.6 0-17.5-7.8-17.5-17.4v-7.7h5.8v7.7c0 6.4 5.2 11.7 11.7 11.7h2.8z"/>
						</g>
					</g>
					<g id="&lt;Group&gt;">
						<g id="&lt;Group&gt;">
							<path id="&lt;Path&gt;" class="s10" d="m57.5 232.7h-2.8c-9.6 0-17.5-7.8-17.5-17.4v-7.7h5.8v7.7c0 6.4 5.2 11.7 11.7 11.7h2.8z"/>
						</g>
					</g>
					<g id="&lt;Group&gt;">
						<g id="&lt;Group&gt;">
							<path id="&lt;Path&gt;" class="s10" d="m43 208.2h-5.8v-2.7c0-9.6 7.9-17.5 17.5-17.5h1.9v5.7h-1.9c-6.5 0-11.7 5.3-11.7 11.8z"/>
						</g>
					</g>
					<g id="&lt;Group&gt;">
						<g id="&lt;Group&gt;">
							<path id="&lt;Path&gt;" class="s10" d="m43 208.2h-5.8v-2.7c0-9.6 7.9-17.5 17.5-17.5h1.9v5.7h-1.9c-6.5 0-11.7 5.3-11.7 11.8z"/>
						</g>
					</g>
					<g id="&lt;Group&gt;">
						<path id="&lt;Path&gt;" class="s10" d="m66 190.8l-10.9 8.4v-16.8z"/>
					</g>
					<g id="&lt;Group&gt;">
						<g id="&lt;Group&gt;">
							<path id="&lt;Path&gt;" class="s10" d="m134.5 247.2h-5.7v-2.7c0-6.5-5.3-11.8-11.7-11.8h-60.4v-5.7h60.4c9.6 0 17.4 7.9 17.4 17.5z"/>
						</g>
					</g>
				</g>
				<g id="&lt;Group&gt;">
					<path id="&lt;Path&gt;" class="s9" d="m372.3 255v5.7h-57.1v-5.7z"/>
				</g>
			</g>
			<g id="&lt;Group&gt;">
				<path id="&lt;Path&gt;" class="s6" d="m355.4 353.9c-2.7 0-4.9-2.2-4.9-4.8 0-2.7 2.2-4.9 4.9-4.9 2.7 0 4.8 2.2 4.8 4.9 0 2.6-2.1 4.8-4.8 4.8z"/>
			</g>
			<g id="&lt;Group&gt;">
				<path id="&lt;Path&gt;" class="s0" d="m170.5 253.8c-2.7 0-4.8-2.2-4.8-4.9 0-2.6 2.1-4.8 4.8-4.8 2.7 0 4.8 2.2 4.8 4.8 0 2.7-2.1 4.9-4.8 4.9z"/>
			</g>
			<g id="&lt;Group&gt;">
				<path id="&lt;Path&gt;" class="s0" d="m295 356.9h-2.3v-38.6l-20.3-13.3 1.3-2 21.3 14z"/>
			</g>
			<g id="&lt;Group&gt;">
				<path id="&lt;Path&gt;" class="s0" d="m333.4 336.8l-51.8-34.3 1.3-2 51.8 34.3z"/>
			</g>
			<g id="&lt;Group&gt;">
				<path id="&lt;Compound Path&gt;" fill-rule="evenodd" class="s0" d="m372 420.1c-2.9 0-5.4-2.4-5.4-5.4 0-3 2.5-5.4 5.4-5.4 3 0 5.4 2.4 5.4 5.4 0 3-2.4 5.4-5.4 5.4zm3.1-5.4c0-1.7-1.4-3-3.1-3-1.6 0-3 1.3-3 3 0 1.7 1.4 3 3 3 1.7 0 3.1-1.3 3.1-3z"/>
			</g>
			<g id="&lt;Group&gt;">
				<path id="&lt;Path&gt;" class="s0" d="m368.3 413l-13-8.9 1.3-2 13 8.9z"/>
			</g>
			<g id="&lt;Group&gt;">
				<g id="&lt;Group&gt;">
					<g id="&lt;Group&gt;">
						<path id="&lt;Path&gt;" class="s6" d="m222.8 64.8c-2.5 0-4.5-2-4.5-4.5 0-2.5 2-4.5 4.5-4.5 2.5 0 4.5 2 4.5 4.5 0 2.5-2 4.5-4.5 4.5z"/>
					</g>
				</g>
				<g id="&lt;Group&gt;">
					<g id="&lt;Group&gt;">
						<path id="&lt;Compound Path&gt;" fill-rule="evenodd" class="s6" d="m222.8 67c-3.7 0-6.7-3-6.7-6.7 0-3.7 3-6.6 6.7-6.6 3.7 0 6.7 2.9 6.7 6.6 0 3.7-3 6.7-6.7 6.7zm5.7-6.7c0-3.1-2.6-5.6-5.7-5.6-3.1 0-5.7 2.5-5.7 5.6 0 3.2 2.6 5.7 5.7 5.7 3.1 0 5.7-2.5 5.7-5.7z"/>
					</g>
				</g>
			</g>
			<g id="&lt;Group&gt;">
				<g id="&lt;Group&gt;">
					<g id="&lt;Group&gt;">
						<path id="&lt;Path&gt;" class="s8" d="m266.8 421.9c-2.5 0-4.5-2-4.5-4.5 0-2.5 2-4.5 4.5-4.5 2.5 0 4.5 2 4.5 4.5 0 2.5-2 4.5-4.5 4.5z"/>
					</g>
				</g>
				<g id="&lt;Group&gt;">
					<g id="&lt;Group&gt;">
						<path id="&lt;Compound Path&gt;" fill-rule="evenodd" class="s8" d="m266.8 424.1c-3.7 0-6.6-3-6.6-6.7 0-3.7 2.9-6.6 6.6-6.6 3.7 0 6.7 2.9 6.7 6.6 0 3.7-3 6.7-6.7 6.7zm5.7-6.7c0-3.1-2.5-5.6-5.7-5.6-3.1 0-5.6 2.5-5.6 5.6 0 3.2 2.5 5.7 5.6 5.7 3.2 0 5.7-2.5 5.7-5.7z"/>
					</g>
				</g>
			</g>
			<g id="&lt;Group&gt;">
				<path id="&lt;Path&gt;" class="s0" d="m235.4 447.2l-14.7-14v-16.3h2.6v15.2l13.9 13.2z"/>
			</g>
			<g id="&lt;Group&gt;">
				<path id="&lt;Path&gt;" class="s5" d="m302.2 174.6c-1.7 0-3.1-1.4-3.1-3.1 0-1.8 1.4-3.2 3.1-3.2 1.7 0 3.1 1.4 3.1 3.2 0 1.7-1.4 3.1-3.1 3.1z"/>
			</g>
			<g id="&lt;Group&gt;">
				<path id="&lt;Path&gt;" class="s1" d="m378.4 279.1c-1.7 0-3.1-1.4-3.1-3.1 0-1.7 1.4-3.1 3.1-3.1 1.7 0 3.1 1.4 3.1 3.1 0 1.7-1.4 3.1-3.1 3.1z"/>
			</g>
			<g id="&lt;Group&gt;">
				<path id="&lt;Path&gt;" class="s1" d="m223.9 182.1c-1.8 0-3.2-1.4-3.2-3.1 0-1.8 1.4-3.1 3.2-3.1 1.7 0 3.1 1.3 3.1 3.1 0 1.7-1.4 3.1-3.1 3.1z"/>
			</g>
			<g id="&lt;Group&gt;">
				<path id="&lt;Path&gt;" class="s7" d="m419.4 191.3c-1.7 0-3.1-1.4-3.1-3.1 0-1.7 1.4-3.1 3.1-3.1 1.8 0 3.2 1.4 3.2 3.1 0 1.7-1.4 3.1-3.2 3.1z"/>
			</g>
			<g id="&lt;Group&gt;">
				<path id="&lt;Path&gt;" class="s7" d="m133.1 169.5c-1.7 0-3.1-1.4-3.1-3.1 0-1.8 1.4-3.1 3.1-3.1 1.7 0 3.1 1.3 3.1 3.1 0 1.7-1.4 3.1-3.1 3.1z"/>
			</g>
			<g id="&lt;Group&gt;">
				<path id="&lt;Path&gt;" class="s7" d="m160.9 265.5c-1.7 0-3.1-1.4-3.1-3.2 0-1.7 1.4-3.1 3.1-3.1 1.7 0 3.1 1.4 3.1 3.1 0 1.8-1.4 3.2-3.1 3.2z"/>
			</g>
			<g id="&lt;Group&gt;">
				<path id="&lt;Path&gt;" class="s7" d="m272.5 366.9c-1.7 0-3.1-1.4-3.1-3.1 0-1.7 1.4-3.1 3.1-3.1 1.8 0 3.2 1.4 3.2 3.1 0 1.7-1.4 3.1-3.2 3.1z"/>
			</g>
			<g id="&lt;Group&gt;">
				<path id="&lt;Path&gt;" class="s4" d="m211.3 384.3v48.9h-1.3v-48.9z"/>
			</g>
			<g id="&lt;Group&gt;">
				<path id="&lt;Path&gt;" class="s7" d="m211.2 434.1c-1.8 0-3.2-1.4-3.2-3.1 0-1.7 1.4-3.1 3.2-3.1 1.7 0 3.1 1.4 3.1 3.1 0 1.7-1.4 3.1-3.1 3.1z"/>
			</g>
			<g id="&lt;Group&gt;">
				<path id="&lt;Path&gt;" class="s7" d="m293.3 394.4c-1.7 0-3.1-1.4-3.1-3.1 0-1.8 1.4-3.2 3.1-3.2 1.8 0 3.2 1.4 3.2 3.2 0 1.7-1.4 3.1-3.2 3.1z"/>
			</g>
			<g id="&lt;Group&gt;">
				<path id="&lt;Path&gt;" class="s0" d="m340.4 322.8c-1.7 0.4-3.4-0.6-3.8-2.3-0.4-1.7 0.6-3.4 2.3-3.8 1.7-0.4 3.3 0.6 3.8 2.3 0.4 1.6-0.6 3.3-2.3 3.8z"/>
			</g>
			<g id="&lt;Group&gt;">
				<path id="&lt;Path&gt;" class="s11" d="m84.4 328.3c-1.8 0-3.2-1.4-3.2-3.2 0-1.7 1.4-3.1 3.2-3.1 1.7 0 3.1 1.4 3.1 3.1 0 1.8-1.4 3.2-3.1 3.2z"/>
			</g>
			<g id="&lt;Group&gt;">
				<path id="&lt;Path&gt;" class="s0" d="m142.2 386.1l-27.1-27.9 1.7-1.6 27.1 27.8z"/>
			</g>
			<g id="&lt;Group&gt;">
				<path id="&lt;Path&gt;" class="s8" d="m148.7 211.4c-2.7 0-5-2.2-5-4.9 0-2.8 2.3-5 5-5 2.8 0 5 2.2 5 5 0 2.7-2.2 4.9-5 4.9z"/>
			</g>
			<g id="&lt;Group&gt;">
				<path id="&lt;Path&gt;" class="s8" d="m204.6 448.7c-2.8 0-5-2.3-5-5 0-2.8 2.2-5 5-5 2.7 0 5 2.2 5 5 0 2.7-2.3 5-5 5z"/>
			</g>
			<g id="&lt;Group&gt;">
				<path id="&lt;Path&gt;" class="s4" d="m178.7 375.8h-32.8l-0.2-0.1-24.1-23.5 0.9-0.9 23.9 23.3h32.3z"/>
			</g>
			<g id="&lt;Group&gt;">
				<path id="&lt;Path&gt;" class="s7" d="m178.6 378.2c-1.8 0-3.2-1.4-3.2-3.1 0-1.7 1.4-3.1 3.2-3.1 1.7 0 3.1 1.4 3.1 3.1 0 1.7-1.4 3.1-3.1 3.1z"/>
			</g>
			<g id="&lt;Group&gt;">
				<path id="&lt;Path&gt;" class="s0" d="m93.9 259.7c-1.7 0-3.1-1.4-3.1-3.1 0-1.8 1.4-3.2 3.1-3.2 1.7 0 3.1 1.4 3.1 3.2 0 1.7-1.4 3.1-3.1 3.1z"/>
			</g>
			<g id="&lt;Group&gt;">
				<path id="&lt;Path&gt;" class="s0" d="m451 296.8v1.2h-47.2v-1.2z"/>
			</g>
			<g id="&lt;Group&gt;">
				<path id="&lt;Path&gt;" class="s0" d="m450.8 300.7c-1.7 0-3.1-1.4-3.1-3.1 0-1.7 1.4-3.1 3.1-3.1 1.7 0 3.1 1.4 3.1 3.1 0 1.7-1.4 3.1-3.1 3.1z"/>
			</g>
			<g id="&lt;Group&gt;">
				<path id="&lt;Path&gt;" class="s0" d="m434.1 299.9v1.3h-34.3v-1.3z"/>
			</g>
			<g id="&lt;Group&gt;">
				<path id="&lt;Path&gt;" class="s0" d="m318.3 63.5v1.3h-35.4v-1.3z"/>
			</g>
			<g id="&lt;Group&gt;">
				<path id="&lt;Path&gt;" class="s2" d="m283.1 67c-1.7 0-3.1-1.4-3.1-3.1 0-1.7 1.4-3.1 3.1-3.1 1.7 0 3.1 1.4 3.1 3.1 0 1.7-1.4 3.1-3.1 3.1z"/>
			</g>
			<g id="&lt;Group&gt;">
				<path id="&lt;Path&gt;" class="s0" d="m319.2 66.7v1.2h-23.4v-1.2z"/>
			</g>
			<g id="&lt;Group&gt;">
				<path id="&lt;Path&gt;" class="s0" d="m234.9 167.7c-2.7 0-4.9-2.1-4.9-4.8 0-2.7 2.2-4.9 4.9-4.9 2.6 0 4.8 2.2 4.8 4.9 0 2.7-2.2 4.8-4.8 4.8z"/>
			</g>
			<g id="&lt;Group&gt;">
				<path id="&lt;Path&gt;" class="s0" d="m454 241.4v2.4h-36.3v-2.4z"/>
			</g>
			<g id="&lt;Group&gt;">
				<path id="&lt;Path&gt;" class="s0" d="m138 373.8l-17.3-17.4 0.9-0.9 17.3 17.4z"/>
			</g>
			<g id="&lt;Group&gt;">
				<path id="&lt;Path&gt;" class="s0" d="m209.7 233.1l-73.6-57.3 0.8-1 73.6 57.3z"/>
			</g>
			<g id="&lt;Group&gt;">
				<path id="&lt;Path&gt;" class="s0" d="m88.1 186.1l-10.6-9.9 0.9-0.9 10.6 9.9z"/>
			</g>
			<g id="&lt;Group&gt;">
				<path id="&lt;Path&gt;" class="s0" d="m276.7 305.7v32.1h-1.3v-32.1z"/>
			</g>
			<g id="&lt;Group&gt;">
				<path id="&lt;Path&gt;" class="s0" d="m314.3 385.4v1.3h-14v-1.3z"/>
			</g>
			<g id="&lt;Group&gt;">
				<path id="&lt;Path&gt;" class="s0" d="m315.1 309l-13.6-8.7 0.7-1 13.6 8.6z"/>
			</g>
			<g id="&lt;Group&gt;">
				<path id="&lt;Path&gt;" class="s0" d="m445.8 246.2v1.2h-32.1v-1.2z"/>
			</g>
			<g id="&lt;Group&gt;">
				<path id="&lt;Compound Path&gt;" fill-rule="evenodd" class="s0" d="m426.4 147.6c-2.9 0-5.4-2.4-5.4-5.4 0-2.9 2.5-5.3 5.4-5.3 3 0 5.4 2.4 5.4 5.3 0 3-2.4 5.4-5.4 5.4zm3.1-5.4c0-1.6-1.4-3-3.1-3-1.6 0-3 1.4-3 3 0 1.7 1.4 3.1 3 3.1 1.7 0 3.1-1.4 3.1-3.1z"/>
			</g>
			<g id="&lt;Group&gt;">
				<path id="&lt;Path&gt;" class="s0" d="m423 141.1v2.3h-33.7v-2.3z"/>
			</g>
			<g id="&lt;Group&gt;">
				<path id="&lt;Path&gt;" class="s0" d="m414.9 145.8v1.3h-29.6v-1.3z"/>
			</g>
			<g id="&lt;Group&gt;">
				<path id="&lt;Compound Path&gt;" fill-rule="evenodd" class="s0" d="m121 420.2c-3 0-5.4-2.4-5.4-5.4 0-3 2.4-5.4 5.4-5.4 3 0 5.4 2.4 5.4 5.4 0 3-2.4 5.4-5.4 5.4zm3-5.4c0-1.7-1.3-3-3-3-1.7 0-3 1.3-3 3 0 1.7 1.3 3 3 3 1.7 0 3-1.3 3-3z"/>
			</g>
			<g id="&lt;Group&gt;">
				<path id="&lt;Path&gt;" class="s0" d="m160.7 413.6v2.4h-36.3v-2.4z"/>
			</g>
			<g id="&lt;Group&gt;">
				<path id="&lt;Path&gt;" class="s0" d="m164.7 420v1.3h-32.2v-1.3z"/>
			</g>
			<g id="&lt;Group&gt;">
				<path id="&lt;Path&gt;" class="s0" d="m191.7 77.5v27.1h-1.3v-27.1z"/>
			</g>
			<g id="&lt;Group&gt;">
				<path id="&lt;Path&gt;" class="s0" d="m206.9 85.7v27.1h-1.3v-27.1z"/>
			</g>
			<g id="&lt;Group&gt;">
				<path id="&lt;Path&gt;" class="s0" d="m187.2 86.6v29.1h-1.2v-29.1z"/>
			</g>
			<g id="&lt;Group&gt;">
				<path id="&lt;Path&gt;" class="s0" d="m442.9 274.2h-5.7l-7.1-4.9 0.7-1 6.8 4.6h5.3z"/>
			</g>
			<g id="&lt;Group&gt;">
				<path id="&lt;Path&gt;" class="s0" d="m442.5 278.6h-7.9l-18.6-13.3 0.7-1 18.3 13h7.5z"/>
			</g>
			<g id="&lt;Group&gt;">
				<g id="&lt;Group&gt;">
					<g id="&lt;Group&gt;">
						<path id="&lt;Path&gt;" class="s1" d="m350.6 205.6c-2.5 0-4.5-2.1-4.5-4.5 0-2.5 2-4.5 4.5-4.5 2.5 0 4.5 2 4.5 4.5 0 2.4-2 4.5-4.5 4.5z"/>
					</g>
				</g>
				<g id="&lt;Group&gt;">
					<g id="&lt;Group&gt;">
						<path id="&lt;Compound Path&gt;" fill-rule="evenodd" class="s1" d="m350.6 207.7c-3.7 0-6.7-2.9-6.7-6.6 0-3.7 3-6.7 6.7-6.7 3.7 0 6.7 3 6.7 6.7 0 3.7-3 6.6-6.7 6.6zm5.7-6.6c0-3.2-2.6-5.7-5.7-5.7-3.1 0-5.7 2.5-5.7 5.7 0 3.1 2.6 5.6 5.7 5.6 3.1 0 5.7-2.5 5.7-5.6z"/>
					</g>
				</g>
			</g>
			<g id="&lt;Group&gt;">
				<g id="&lt;Group&gt;">
					<g id="&lt;Group&gt;">
						<path id="&lt;Path&gt;" class="s8" d="m375.6 99.1c-2.5 0-4.5-2-4.5-4.5 0-2.5 2-4.5 4.5-4.5 2.5 0 4.5 2 4.5 4.5 0 2.5-2 4.5-4.5 4.5z"/>
					</g>
				</g>
				<g id="&lt;Group&gt;">
					<g id="&lt;Group&gt;">
						<path id="&lt;Compound Path&gt;" fill-rule="evenodd" class="s8" d="m375.6 101.3c-3.7 0-6.7-3-6.7-6.7 0-3.7 3-6.7 6.7-6.7 3.7 0 6.6 3 6.6 6.7 0 3.7-2.9 6.7-6.6 6.7zm5.6-6.7c0-3.1-2.5-5.6-5.6-5.6-3.2 0-5.7 2.5-5.7 5.6 0 3.1 2.5 5.7 5.7 5.7 3.1 0 5.6-2.6 5.6-5.7z"/>
					</g>
				</g>
			</g>
			<g id="&lt;Group&gt;">
				<g id="&lt;Group&gt;">
					<g id="&lt;Group&gt;">
						<g id="&lt;Group&gt;">
							<path id="&lt;Compound Path&gt;" fill-rule="evenodd" class="s12" d="m319.2 78.4v8.2c0 0.4-0.3 0.7-0.6 0.7h-12.8c-0.4 0-0.7-0.3-0.7-0.7v-8.2c0-0.4 0.3-0.7 0.7-0.7h3.1v-1.5h0.7v1.5h5.2v-1.5h0.6v1.5h3.2c0.3 0 0.6 0.3 0.6 0.7zm-9.1 2.6c0-0.7-0.5-1.2-1.2-1.2-0.7 0-1.2 0.5-1.2 1.2 0 0.7 0.5 1.2 1.2 1.2 0.7 0 1.2-0.5 1.2-1.2zm-2 3.7v0.9h8.2v-0.9zm8.5-3.7c0-0.7-0.5-1.2-1.2-1.2-0.6 0-1.2 0.5-1.2 1.2 0 0.7 0.6 1.2 1.2 1.2 0.7 0 1.2-0.5 1.2-1.2z"/>
						</g>
						<g id="&lt;Group&gt;">
							<g id="&lt;Group&gt;">
								<path id="&lt;Path&gt;" class="s12" d="m303.3 88.1v7.1h-2.5v-7.1z"/>
							</g>
							<g id="&lt;Group&gt;">
								<path id="&lt;Path&gt;" class="s12" d="m303.3 95.7v7.2h-2.5v-7.2z"/>
							</g>
							<g id="&lt;Group&gt;">
								<path id="&lt;Path&gt;" class="s12" d="m302 103c-1.5 0-2.8 1.3-2.8 2.8 0 1.3 0.8 2.3 1.9 2.7v-1c-0.6-0.3-1-0.9-1-1.7 0-1 0.9-1.9 1.9-1.9 1.1 0 2 0.9 2 1.9 0 0.8-0.5 1.4-1.1 1.7v1c1.1-0.4 1.9-1.4 1.9-2.7 0-1.5-1.2-2.8-2.8-2.8z"/>
							</g>
						</g>
						<g id="&lt;Group&gt;">
							<g id="&lt;Group&gt;">
								<path id="&lt;Path&gt;" class="s12" d="m323.7 88.1v7.1h-2.6v-7.1z"/>
							</g>
							<g id="&lt;Group&gt;">
								<path id="&lt;Path&gt;" class="s12" d="m323.7 95.7v7.2h-2.6v-7.2z"/>
							</g>
							<g id="&lt;Group&gt;">
								<path id="&lt;Path&gt;" class="s12" d="m322.4 103c-1.5 0-2.8 1.3-2.8 2.8 0 1.3 0.8 2.3 1.9 2.7v-1c-0.6-0.3-1-0.9-1-1.7 0-1 0.8-1.9 1.9-1.9 1.1 0 1.9 0.9 1.9 1.9 0 0.8-0.4 1.4-1 1.7v1c1.1-0.4 1.9-1.4 1.9-2.7 0-1.5-1.2-2.8-2.8-2.8z"/>
							</g>
						</g>
						<g id="&lt;Group&gt;">
							<path id="&lt;Compound Path&gt;" fill-rule="evenodd" class="s12" d="m320.6 88.4v11.7c0 0.4-0.3 0.7-0.7 0.7h-15.5c-0.4 0-0.6-0.3-0.6-0.7v-11.7c0-0.4 0.2-0.7 0.6-0.7h15.5c0.4 0 0.7 0.3 0.7 0.7zm-3.1 5c0-0.5-0.5-1-1-1h-8.6c-0.6 0-1 0.5-1 1v3.5c0 0.5 0.4 0.9 1 0.9h3.8l2.9-2.9c0.3-0.3 0.6-0.3 0.9 0 0.2 0.2 0.2 0.6 0 0.8l-2.1 2.1h3.1c0.5 0 1-0.4 1-0.9z"/>
						</g>
					</g>
					<g id="&lt;Group&gt;">
						<g id="&lt;Group&gt;">
							<g id="&lt;Group&gt;">
								<path id="&lt;Path&gt;" class="s12" d="m311.2 101.5v6.5h-4.2v-6.5z"/>
							</g>
						</g>
						<g id="&lt;Group&gt;">
							<g id="&lt;Group&gt;">
								<path id="&lt;Path&gt;" class="s12" d="m311.2 108.7v3.1h-4.2v-3.1z"/>
							</g>
						</g>
						<g id="&lt;Group&gt;">
							<path id="&lt;Path&gt;" class="s12" d="m311.9 113.6c0 0.7-0.5 1.3-1.2 1.3h-4.7c-0.7 0-1.2-0.6-1.2-1.3 0-0.8 0.5-1.4 1.2-1.4h4.7c0.7 0 1.2 0.6 1.2 1.4z"/>
						</g>
						<g id="&lt;Group&gt;">
							<g id="&lt;Group&gt;">
								<path id="&lt;Path&gt;" class="s12" d="m317.4 101.5v6.5h-4.2v-6.5z"/>
							</g>
						</g>
						<g id="&lt;Group&gt;">
							<g id="&lt;Group&gt;">
								<path id="&lt;Path&gt;" class="s12" d="m317.4 108.7v3.1h-4.2v-3.1z"/>
							</g>
						</g>
						<g id="&lt;Group&gt;">
							<path id="&lt;Path&gt;" class="s12" d="m312.5 113.6c0 0.7 0.6 1.3 1.2 1.3h4.8c0.6 0 1.2-0.6 1.2-1.3 0-0.8-0.6-1.4-1.2-1.4h-4.8c-0.6 0-1.2 0.6-1.2 1.4z"/>
						</g>
					</g>
				</g>
				<g id="&lt;Group&gt;">
					<g id="&lt;Group&gt;">
						<path id="&lt;Path&gt;" class="s8" d="m93.1 287.5c0-3.6-3.5-6.7-8.3-7.5q0.3 1.1 0.3 2.2 0 2.5-1.3 4.7-1.3 2-3.5 3.6c-1.7 1.2-3.8 2.1-6.1 2.6 2 1.3 4.8 2.2 7.8 2.2q0.6 0 1.2-0.1l7.6 3.5-3.4-4.4c3.4-1.3 5.7-3.9 5.7-6.8z"/>
					</g>
					<g id="&lt;Group&gt;">
						<path id="&lt;Path&gt;" class="s8" d="m83.6 282.2c0-5.5-6.3-9.9-14.2-9.9-7.9 0-14.3 4.4-14.3 9.9 0 4.2 3.7 7.8 8.9 9.3l-2.3 6.2 8.6-5.5c7.4-0.4 13.3-4.7 13.3-10z"/>
					</g>
				</g>
				<g id="&lt;Group&gt;">
					<path id="&lt;Path&gt;" class="s8" d="m276.4 381.4c0.1-0.8-0.1-1.9-0.9-2.7-0.4-0.5-1.1-1-2.2-1h-5.1c-0.1-0.7-0.1-1.9 0-2.9 0.1-1.5-0.8-3.4-1.6-4.3q-0.7-0.8-1.3-0.9-0.2 0-0.5 0c-0.9 0-2 0.4-2.3 1.2-0.1 0.4 0 0.8 0.1 1.2 0.2 0.5 0.3 1.2 0.1 2.1-0.2 1.6-2.7 5.5-3.4 6.2-0.3 0.2-0.6 0.3-0.9 0.5-0.3-0.6-0.9-1.1-1.5-1.1h-5.7c-0.7 0-1.2 0.6-1.2 1.3v11.2q0 0.1 0 0.1c0.1 0.8 0.8 1.4 1.5 1.4h7.3c0.7 0 1.3-0.6 1.2-1.4l-0.1-0.4q0.4 0.1 0.6 0.2c0.6 0.2 3.7 1.5 5.2 1.5h6.5c0.5 0 1.9-0.1 2.4-1.4 0.2-0.6 0.1-1.1-0.1-1.6q0-0.1 0-0.1 0-0.1 0-0.1c0.8-0.2 1.3-0.7 1.5-1.5 0.1-1-0.2-1.6-0.5-2.1 0.9-0.4 1.4-1.2 1.3-2.2-0.1-0.9-0.5-1.5-1.1-1.9q0.6-0.5 0.7-1.3z"/>
				</g>
				<g id="&lt;Group&gt;">
					<g id="&lt;Group&gt;">
						<path id="&lt;Path&gt;" class="s11" d="m182.3 222.8q-0.4 0-0.7 0.1 0-0.3 0-0.6c0-4.4-3.6-7.9-7.9-7.9-4.2 0-7.6 3.1-8 7.2 1.5 1.1 2.4 2.8 2.4 4.7q0 0 0.1 0c2.7 0 4.9 2.1 4.9 4.8 0 1.6-0.8 3.1-2.1 3.9h11.3c3.5 0 6.4-2.7 6.4-6.1 0-3.3-2.9-6.1-6.4-6.1z"/>
					</g>
					<g id="&lt;Group&gt;">
						<path id="&lt;Path&gt;" class="s11" d="m172.3 231.1c0-2.2-1.9-3.9-4.1-3.9q-0.3 0-0.5 0l-0.5 0.1v-0.6q0-0.1 0-0.3c0-2.9-2.3-5.2-5.2-5.2-1.3 0-2.6 0.5-3.5 1.4-1 0.8-1.6 2.1-1.7 3.4v0.4l-0.5-0.1q-0.3 0-0.6 0c-2.3 0-4.3 2-4.3 4.3 0 2.4 1.9 4.4 4.3 4.4h0.1 12.3 0.1c2.2 0 4.1-1.8 4.1-3.9z"/>
					</g>
				</g>
				<g id="&lt;Group&gt;">
					<g id="&lt;Group&gt;">
						<path id="&lt;Compound Path&gt;" fill-rule="evenodd" class="s0" d="m236.5 323.4v12.2c0 0.8-0.6 1.3-1.3 1.3h-19.9c-0.7 0-1.3-0.5-1.3-1.3v-12.2c0-0.8 0.6-1.3 1.3-1.3h6.6l1-1.6c0-0.1 0.1-0.2 0.2-0.2h4.2c0.2 0 0.3 0.1 0.3 0.2l1 1.6h2.4v-0.6c0-0.1 0.1-0.2 0.2-0.2h3.2c0.1 0 0.2 0.1 0.2 0.2v0.6h0.6c0.7 0 1.3 0.5 1.3 1.3zm-5.9 6.1c0-3-2.4-5.4-5.4-5.4-2.9 0-5.3 2.4-5.3 5.4 0 3 2.4 5.4 5.3 5.4 3 0 5.4-2.4 5.4-5.4z"/>
					</g>
					<g id="&lt;Group&gt;">
						<path id="&lt;Path&gt;" class="s0" d="m225.2 333.1c-1.9 0-3.5-1.6-3.5-3.6 0-2 1.6-3.6 3.5-3.6 2 0 3.6 1.6 3.6 3.6 0 2-1.6 3.6-3.6 3.6z"/>
					</g>
				</g>
				<g id="&lt;Group&gt;">
					<path id="&lt;Path&gt;" class="s12" d="m406.4 295.1c0 5.8-10.5 13.2-10.5 13.2 0 0-10.4-7.4-10.4-13.2 0-5.8 7.6-6.7 10.4-1.7 2.7-4.9 10.5-4.1 10.5 1.7z"/>
				</g>
				<g id="&lt;Group&gt;">
					<path id="&lt;Path&gt;" class="s11" d="m185 419.2h-1.2c0 0 0 12.2 0 16.1-0.9-0.3-2.3-0.2-3.6 0.3-2.3 0.9-3.7 2.8-3.2 4.2 0.6 1.4 2.9 1.8 5.2 0.9 2-0.7 3.3-2.1 3.3-3.4h0.1v-12.4c1.4 0.6 3.2 2.9 3.2 5.4 0 2.5-0.6 3.5-1 3.8-0.5 0.4 0 0.7 0.4 0.5 0.6-0.5 2.1-1.6 2.1-5.4 0-3.8-2.3-5.4-4-7.2-1.4-1.6-1.3-2.8-1.3-2.8z"/>
				</g>
				<g id="&lt;Group&gt;">
					<path id="&lt;Compound Path&gt;" fill-rule="evenodd" class="s2" d="m261.7 74.2c0 0 1.4-4.2 0.2-6.6q-0.9 0.4-1.8 0.8c0 0-1.1 0-2.9-2.1-1.8-2.1-1.6-3.1-1.6-3.1q0.5-0.9 1.1-1.7c-2.2-1.6-6.5-0.8-6.5-0.8 4.1-4.9 8-5.6 8-5.6l2.8 0.1c1.6-2.2 3.4-3.9 5.8-5.3 7.2-4.3 12.4-3 12.4-3l2.1-1.3-1.5 2c0 0 0.5 5.3-4.8 11.8-1.8 2.1-3.8 3.6-6.2 5l-0.3 2.7c0 0-1.3 3.7-6.8 7.1zm12.4-19.9c0.7-0.7 0.8-1.8 0.1-2.6-0.6-0.7-1.7-0.8-2.5-0.1-0.8 0.6-0.8 1.7-0.2 2.5 0.7 0.8 1.8 0.8 2.6 0.2z"/>
				</g>
				<g id="&lt;Group&gt;">
					<g id="&lt;Group&gt;">
						<path id="&lt;Path&gt;" class="s1" d="m90.8 379.1c-2.8 0-5.1 3.4-5.1 7.6q0 0.3 0 0.6h7.1c0.2-2.2 0.8-4.2 1.6-5.9-0.9-1.4-2.2-2.3-3.6-2.3z"/>
					</g>
					<g id="&lt;Group&gt;">
						<path id="&lt;Path&gt;" class="s1" d="m90.8 378.6c-1.8 0-3.2-1.3-3.2-3 0-1.7 1.4-3.1 3.2-3.1 1.8 0 3.2 1.4 3.2 3.1 0 1.7-1.4 3-3.2 3z"/>
					</g>
					<g id="&lt;Group&gt;">
						<path id="&lt;Path&gt;" class="s1" d="m107.7 381.8c-1.4-2.8-3.5-4.5-6-4.5-2.3 0-4.4 1.6-5.8 4.1-0.8 1.6-1.4 3.6-1.6 5.8q0 0.6 0 1.3 0 0.5 0 0.9h14.9q0-0.4 0-0.9 0-0.3 0-0.7c-0.1-2.2-0.7-4.3-1.5-6z"/>
					</g>
					<g id="&lt;Group&gt;">
						<path id="&lt;Path&gt;" class="s1" d="m101.7 376.7c-2.6 0-4.7-2.1-4.7-4.6 0-2.5 2.1-4.5 4.7-4.5 2.6 0 4.8 2 4.8 4.5 0 2.5-2.2 4.6-4.8 4.6z"/>
					</g>
				</g>
				<g id="&lt;Group&gt;">
					<path id="&lt;Path&gt;" class="s0" d="m149.8 353.4c0 7.1 5.8 12.9 12.9 12.9 2.5 0 4.9-0.7 6.9-2l1.5 2.7 2.5-4.7 2.4-4.6-5.2-0.2-5.2-0.3 1.4 2.6c-1.2 0.8-2.7 1.3-4.3 1.3-4.2 0-7.7-3.4-7.7-7.7 0-4.2 3.5-7.7 7.7-7.7 2.2 0 4.3 1 5.8 2.6 0.9 1.1 2.6 1.2 3.6 0.2 0.6-0.5 0.9-1.2 0.9-1.9 0-0.6-0.2-1.3-0.7-1.8-2.4-2.7-5.9-4.3-9.6-4.3-7.1 0-12.9 5.8-12.9 12.9z"/>
				</g>
			</g>
			<g id="&lt;Group&gt;">
				<path id="&lt;Compound Path&gt;" fill-rule="evenodd" class="s5" d="m56.8 261.9c-2.9 0-5.4-2.4-5.4-5.3 0-3 2.5-5.4 5.4-5.4 3 0 5.4 2.4 5.4 5.4 0 2.9-2.4 5.3-5.4 5.3zm3.1-5.3c0-1.7-1.4-3.1-3.1-3.1-1.6 0-3 1.4-3 3.1 0 1.6 1.4 3 3 3 1.7 0 3.1-1.4 3.1-3z"/>
			</g>
			<g id="&lt;Group&gt;">
				<path id="&lt;Path&gt;" class="s0" d="m428.5 271.2c-1.4-0.9-1.9-2.9-0.9-4.3 0.9-1.4 2.8-1.9 4.3-0.9 1.4 0.9 1.8 2.8 0.9 4.3-0.9 1.4-2.9 1.8-4.3 0.9z"/>
			</g>
			<g id="&lt;Group&gt;">
				<g id="&lt;Group&gt;">
					<path id="&lt;Path&gt;" class="s5" d="m215.2 419.3c-15.1 0-27.3-12.2-27.3-27.3 0-15.1 12.2-27.3 27.3-27.3 15.1 0 27.3 12.2 27.3 27.3 0 15.1-12.2 27.3-27.3 27.3z"/>
				</g>
				<g id="&lt;Group&gt;">
					<path id="&lt;Path&gt;" class="s3" d="m175 415.1c1 9.2-5.7 17.5-14.9 18.4-9.2 1-17.4-5.6-18.4-14.8-1-9.2 5.6-17.5 14.8-18.4 9.2-1 17.5 5.6 18.5 14.8z"/>
				</g>
				<g id="&lt;Group&gt;">
					<path id="&lt;Path&gt;" class="s2" d="m370.6 384.8c2.2 16.4-9.2 31.5-25.6 33.7-16.3 2.3-31.4-9.1-33.7-25.5-2.2-16.4 9.2-31.4 25.6-33.7 16.3-2.2 31.4 9.2 33.7 25.5z"/>
				</g>
				<g id="&lt;Group&gt;">
					<path id="&lt;Path&gt;" class="s6" d="m401.3 272.3c-14.4 0-26.1-11.6-26.1-26 0-14.4 11.7-26.1 26.1-26.1 14.4 0 26 11.7 26 26.1 0 14.4-11.6 26-26 26z"/>
				</g>
				<g id="&lt;Group&gt;">
					<path id="&lt;Path&gt;" class="s1" d="m93.5 207.8c-9.3 0-16.9-7.5-16.9-16.8 0-9.3 7.6-16.8 16.9-16.8 9.3 0 16.8 7.5 16.8 16.8 0 9.3-7.5 16.8-16.8 16.8z"/>
				</g>
				<g id="&lt;Group&gt;">
					<path id="&lt;Path&gt;" class="s1" d="m255 320.2c-35.3 0-63.8-28.5-63.8-63.8 0-35.3 28.5-63.8 63.8-63.8 35.3 0 63.8 28.5 63.8 63.8 0 35.3-28.5 63.8-63.8 63.8z"/>
				</g>
				<g id="&lt;Group&gt;">
					<path id="&lt;Path&gt;" class="s6" d="m112.8 358.6c-13 0-23.5-10.5-23.5-23.5 0-13 10.5-23.5 23.5-23.5 13 0 23.5 10.5 23.5 23.5 0 13-10.5 23.5-23.5 23.5z"/>
				</g>
				<g id="&lt;Group&gt;">
					<path id="&lt;Path&gt;" class="s3" d="m360.8 191.8c-22.8 0-41.3-18.4-41.3-41.3 0-22.8 18.5-41.2 41.3-41.2 22.8 0 41.3 18.4 41.3 41.2 0 22.9-18.5 41.3-41.3 41.3z"/>
				</g>
				<g id="&lt;Group&gt;">
					<path id="&lt;Path&gt;" class="s5" d="m198.9 162.7c-19.2 0-34.8-15.6-34.8-34.8 0-19.2 15.6-34.8 34.8-34.8 19.2 0 34.8 15.6 34.8 34.8 0 19.2-15.6 34.8-34.8 34.8z"/>
				</g>
			</g>
			<g id="&lt;Group&gt;">
				<g id="&lt;Group&gt;">
					<g id="&lt;Group&gt;">
						<path id="&lt;Compound Path&gt;" fill-rule="evenodd" class="s13" d="m364.3 144.7q0 0.6 0 1.2l2.6 1.3q-0.2 1.9-0.8 3.7l-2.8 0.2q-0.4 0.7-0.8 1.5l1.6 2.4q-1.1 1.6-2.6 2.8l-2.5-1.3q-0.7 0.5-1.4 0.9l0.2 2.9q-1.8 0.8-3.7 1.2l-1.5-2.4q-0.2 0-0.5 0-0.6 0.1-1.2 0.1l-1.3 2.6q-1.9-0.2-3.7-0.8l-0.2-2.9q-0.7-0.3-1.5-0.8l-2.4 1.6q-1.6-1.1-2.8-2.5l1.3-2.6q-0.5-0.7-0.9-1.4l-2.9 0.2q-0.8-1.7-1.2-3.6l2.4-1.6q0-0.2 0-0.4-0.1-0.7-0.1-1.3l-2.6-1.2q0.2-2 0.8-3.8l2.9-0.1q0.3-0.8 0.8-1.5l-1.6-2.4q1.1-1.6 2.5-2.9l2.6 1.3q0.7-0.5 1.4-0.9l-0.2-2.9q1.7-0.8 3.6-1.2l1.6 2.5q0.2 0 0.4-0.1 0.7 0 1.3 0l1.2-2.6q2 0.2 3.8 0.8l0.1 2.8q0.8 0.4 1.5 0.8l2.4-1.6q1.6 1.1 2.9 2.6l-1.3 2.5q0.5 0.7 0.9 1.4l2.9-0.2q0.8 1.8 1.2 3.7l-2.5 1.5q0.1 0.2 0.1 0.5zm-13.9-5.4c-3.6 0.3-6.3 3.5-6 7.1 0.3 3.6 3.5 6.3 7.2 6 3.6-0.3 6.3-3.5 6-7.2-0.4-3.6-3.6-6.3-7.2-5.9z"/>
					</g>
					<g id="&lt;Group&gt;">
						<path id="&lt;Compound Path&gt;" fill-rule="evenodd" class="s13" d="m385.4 150.8q0.5 0.6 0.8 1.2 0.4 0.5 0.7 1.2l-1.5 1.5q0.3 0.8 0.5 1.7l2.1 0.4q0.2 1.4 0.1 2.7l-2.1 0.6q-0.2 0.9-0.4 1.7l1.6 1.5q-0.5 1.2-1.3 2.4l-2.1-0.6q-0.5 0.7-1.2 1.3l0.7 2q-0.5 0.5-1.1 0.8-0.6 0.4-1.2 0.7l-1.6-1.5q-0.8 0.3-1.6 0.5l-0.5 2.1q-1.3 0.2-2.7 0.1l-0.6-2.1q-0.8-0.1-1.7-0.4l-1.4 1.6q-1.3-0.5-2.4-1.3l0.5-2.1q-0.7-0.5-1.2-1.2l-2.1 0.7q-0.4-0.5-0.8-1.1-0.4-0.6-0.6-1.2l1.5-1.6q-0.3-0.8-0.5-1.6l-2.2-0.5q-0.1-1.3 0-2.7l2.1-0.6q0.1-0.8 0.3-1.7l-1.6-1.4q0.5-1.3 1.3-2.4l2.1 0.5q0.6-0.6 1.2-1.2l-0.7-2.1q0.6-0.4 1.1-0.8 0.6-0.3 1.2-0.6l1.6 1.5q0.8-0.3 1.6-0.5l0.5-2.1q1.4-0.2 2.7-0.1l0.6 2.1q0.9 0.1 1.7 0.4l1.4-1.7q1.3 0.6 2.4 1.3l-0.5 2.1q0.7 0.6 1.3 1.2zm-12.5 4c-2.2 1.4-2.9 4.3-1.5 6.6 1.4 2.2 4.3 2.9 6.5 1.5 2.2-1.4 2.9-4.3 1.5-6.5-1.3-2.3-4.3-2.9-6.5-1.6z"/>
					</g>
				</g>
				<g id="&lt;Group&gt;">
					<g id="&lt;Group&gt;">
						<g id="&lt;Group&gt;">
							<path id="&lt;Compound Path&gt;" fill-rule="evenodd" class="s13" d="m294 223.8v51.8c0 1.4-1.2 2.6-2.8 2.6h-74.3c-1.5 0-2.7-1.2-2.7-2.6v-51.8c0-1.4 1.2-2.6 2.7-2.6h74.3c1.6 0 2.8 1.2 2.8 2.6zm-7.7 6c0-1.1-1-2-2.2-2h-60c-1.3 0-2.3 0.9-2.3 2v39.8c0 1.1 1 2 2.3 2h60c1.2 0 2.2-0.9 2.2-2z"/>
						</g>
						<g id="&lt;Group&gt;">
							<path id="&lt;Compound Path&gt;" fill-rule="evenodd" class="s13" d="m299.3 280.3v3.4c0 1.9-1.4 3.4-3.2 3.4h-84.1c-1.7 0-3.1-1.5-3.1-3.4v-3.4zm-38.1 3.1c0-0.5-0.4-0.9-0.9-0.9h-12.4c-0.5 0-0.9 0.4-0.9 0.9 0 0.5 0.4 0.9 0.9 0.9h12.4c0.5 0 0.9-0.4 0.9-0.9z"/>
						</g>
					</g>
				</g>
				<g id="&lt;Group&gt;">
					<g id="&lt;Group&gt;">
						<path id="&lt;Path&gt;" class="s13" d="m385.3 238.9v14.8c0 1 0.9 1.9 2 1.9h27.5c1.1 0 2-0.9 2-1.9v-14.8l-15.7 8.4z"/>
					</g>
					<g id="&lt;Group&gt;">
						<path id="&lt;Path&gt;" class="s13" d="m414.8 236h-27.5c-1.1 0-2 0.8-2 1.9v0.3l15.8 7.8 15.7-7.8v-0.3c0-1.1-0.9-1.9-2-1.9z"/>
					</g>
				</g>
				<g id="&lt;Group&gt;">
					<g id="&lt;Group&gt;">
						<path id="&lt;Path&gt;" class="s13" d="m358.2 401.6l1.1 0.6c0.8 0.5 2.1 0 2.8-1.2 0.7-1.2 0.6-2.6-0.3-3.1l-1.1-0.6q-0.5 1.4-1.1 2.5-0.7 1.1-1.4 1.8z"/>
					</g>
					<g id="&lt;Group&gt;">
						<path id="&lt;Compound Path&gt;" fill-rule="evenodd" class="s13" d="m340.9 372.1c5.9 3.5 8.2 10.7 5.9 16.9l12.4 7.3c-0.7 2.1-1.7 3.5-2.6 4.4l-12.3-7.4c-4.4 5-11.8 6.3-17.7 2.8-6.6-3.9-8.7-12.5-4.8-19.1 3.9-6.6 12.5-8.8 19.1-4.9zm-2.1 3.6c-4.7-2.8-10.7-1.2-13.4 3.4-2.8 4.7-1.3 10.7 3.4 13.4 4.6 2.8 10.6 1.3 13.4-3.4 2.7-4.6 1.2-10.6-3.4-13.4z"/>
					</g>
				</g>
				<g id="&lt;Group&gt;">
					<g id="&lt;Group&gt;">
						<path id="&lt;Path&gt;" class="s13" d="m220.7 114.6v2.6h-42.8v-2.6z"/>
					</g>
					<g id="&lt;Group&gt;">
						<path id="&lt;Path&gt;" class="s13" d="m220.7 119.6v2.6h-42.8v-2.6z"/>
					</g>
					<g id="&lt;Group&gt;">
						<path id="&lt;Path&gt;" class="s13" d="m220.7 124.6v2.5h-42.8v-2.5z"/>
					</g>
					<g id="&lt;Group&gt;">
						<path id="&lt;Path&gt;" class="s13" d="m220.7 129.5v2.6h-42.8v-2.6z"/>
					</g>
					<g id="&lt;Group&gt;">
						<path id="&lt;Path&gt;" class="s13" d="m220.7 134.5v2.6h-42.8v-2.6z"/>
					</g>
					<g id="&lt;Group&gt;">
						<path id="&lt;Path&gt;" class="s13" d="m199.2 139.4v2.6h-21.3v-2.6z"/>
					</g>
				</g>
				<g id="&lt;Group&gt;">
					<path id="&lt;Compound Path&gt;" fill-rule="evenodd" class="s13" d="m230.4 388.5v15.9c0 1.8-1.5 3.3-3.4 3.3h-23.8c-1.8 0-3.3-1.5-3.3-3.3v-15.9c0-1.9 1.5-3.4 3.3-3.4h0.9v-2.9c0-6 4.9-11 11-11 6.1 0 11 5 11 11v2.9h0.9c1.9 0 3.4 1.5 3.4 3.4zm-21.5-3.4h12.4v-2.9c0-3.4-2.8-6.1-6.2-6.1-3.4 0-6.2 2.7-6.2 6.1z"/>
				</g>
				<g id="&lt;Group&gt;">
					<path id="&lt;Path&gt;" class="s13" d="m158.8 406.1l3.2 6.6 7.4 1.1-5.3 5.1 1.2 7.3-6.5-3.4-6.6 3.4 1.3-7.3-5.3-5.1 7.3-1.1z"/>
				</g>
				<g id="&lt;Group&gt;">
					<path id="&lt;Compound Path&gt;" fill-rule="evenodd" class="s13" d="m104.5 193.1c0 0-3-0.7-4.5 0.3q0.3 0.6 0.7 1.2c0 0 0.1 0.7-1.2 2.1-1.3 1.4-2 1.4-2 1.4q-0.7-0.3-1.2-0.6c-1 1.6-0.1 4.5-0.1 4.5-3.7-2.5-4.5-5.1-4.5-5.1l-0.1-1.9c-1.6-1-2.9-2-4.1-3.6-3.5-4.6-3-8.2-3-8.2l-1-1.3 1.4 0.9c0 0 3.6-0.8 8.5 2.4 1.6 1 2.7 2.2 3.8 3.7l1.9 0.1c0 0 2.7 0.5 5.4 4.1zm-14.5-6.9c-0.5-0.5-1.3-0.5-1.8 0-0.4 0.5-0.4 1.3 0.1 1.8 0.5 0.4 1.3 0.4 1.7-0.1 0.5-0.5 0.5-1.3 0-1.7z"/>
				</g>
				<g id="&lt;Group&gt;">
					<g id="&lt;Group&gt;">
						<path id="&lt;Path&gt;" class="s13" d="m114 347.8c-2.2 0-3.9-1.7-3.9-3.9 0-2.1 1.7-3.8 3.9-3.8 2.1 0 3.8 1.7 3.8 3.8 0 2.2-1.7 3.9-3.8 3.9z"/>
					</g>
					<g id="&lt;Group&gt;">
						<path id="&lt;Path&gt;" class="s13" d="m113.7 331.1c-4.3 0-8.1 2.3-10.6 5.7l4 3.5c1.6-2.2 4-3.6 6.7-3.6 2.8 0 5.3 1.4 7 3.6l3.9-3.5c-2.6-3.5-6.5-5.8-11-5.7z"/>
					</g>
					<g id="&lt;Group&gt;">
						<path id="&lt;Path&gt;" class="s13" d="m113.6 322.1c-6.8 0.1-12.9 3.7-16.8 9.2l4 3.5c3-4.3 7.6-7 12.9-7.1 5.4 0 10.2 2.7 13.3 7.1l4-3.6c-4.1-5.6-10.4-9.2-17.4-9.1z"/>
					</g>
				</g>
			</g>
		</g>
	</g>
</svg>